# xmcd CD database file
#
# Track frame offsets:
#	150
#	21720
#	50395
#	69370
#	88280
#	108542
#	132475
#	155542
#	178387
#	205102
#	229750
#	252882
#	278880
#
# Disc length: 4076 seconds
#
# Revision: 0
# Processed by: cddbd v1.5.2PL0 Copyright (c) Steve Scherf et al.
# Submitted via: CDex 1.70beta2
#
DISCID=c30fea0d
DTITLE=Traditionen Tro - Et godt gammelt nummer!
DYEAR=1992
DGENRE=Jazz
TTITLE0=I'll be glad when you're dead
TTITLE1=On the sunny side of the street
TTITLE2=Dr. Jazz
TTITLE3=Bye and bye
TTITLE4=12th street rag
TTITLE5=How can I leave you now?
TTITLE6=Bill Bailey
TTITLE7=Avalon
TTITLE8=I want a little girl
TTITLE9=Hiawatha rag
TTITLE10=Just a little while to stay here
TTITLE11=Panama
TTITLE12=Some of these days
EXTD=YEAR: 1992
EXTT0=
EXTT1=
EXTT2=
EXTT3=
EXTT4=
EXTT5=
EXTT6=
EXTT7=
EXTT8=
EXTT9=
EXTT10=
EXTT11=
EXTT12=
PLAYORDER=
